<svg width="101" height="101" viewBox="0 0 101 101" fill="none" xmlns="http://www.w3.org/2000/svg">
	<g clip-path="url(#clip0_876_97790)">
		<path d="M21.6071 54.3099H68.1488L47.8154 74.6432C46.1904 76.2682 46.1904 78.9349 47.8154 80.5599C49.4404 82.1849 52.0654 82.1849 53.6904 80.5599L81.1488 53.1016C82.7738 51.4766 82.7738 48.8516 81.1488 47.2266L53.7321 19.7266C52.1071 18.1016 49.4821 18.1016 47.8571 19.7266C46.2321 21.3516 46.2321 23.9766 47.8571 25.6016L68.1488 45.9766H21.6071C19.3154 45.9766 17.4404 47.8516 17.4404 50.1432C17.4404 52.4349 19.3154 54.3099 21.6071 54.3099Z" fill="#7F20E0" />
	</g>
	<defs>
		<clipPath id="clip0_876_97790">
			<rect width="100" height="100" fill="white" transform="translate(0.773438 0.143066)" />
		</clipPath>
	</defs>
</svg>
