<svg width="100" height="101" viewBox="0 0 100 101" fill="none" xmlns="http://www.w3.org/2000/svg">
	<g clip-path="url(#clip0_883_100726)">
		<path
			d="M50.0002 65.3037C49.4785 65.3037 48.9929 65.2204 48.5434 65.0539C48.0939 64.8875 47.6666 64.6017 47.2615 64.1965L33.801 50.7362C33.1573 50.0924 32.8396 49.3391 32.848 48.4762C32.8563 47.6132 33.174 46.846 33.801 46.1745C34.4726 45.503 35.2439 45.1562 36.1152 45.134C36.9864 45.1118 37.7578 45.4364 38.4294 46.1079L46.7538 54.4323V21.3178C46.7538 20.3966 47.0645 19.6252 47.686 19.0037C48.3076 18.3821 49.0789 18.0713 50.0002 18.0713C50.9214 18.0713 51.6927 18.3821 52.3143 19.0037C52.9358 19.6252 53.2466 20.3966 53.2466 21.3178V54.4323L61.5709 46.1079C62.2147 45.4642 62.9791 45.1465 63.8643 45.1548C64.7494 45.1631 65.5277 45.503 66.1993 46.1745C66.8263 46.846 67.151 47.6063 67.1731 48.4554C67.1953 49.3045 66.8707 50.0647 66.1993 50.7362L52.7388 64.1965C52.3337 64.6017 51.9064 64.8875 51.4569 65.0539C51.0074 65.2204 50.5218 65.3037 50.0002 65.3037ZM25.3601 83.0013C23.1736 83.0013 21.3228 82.2438 19.8077 80.7287C18.2927 79.2137 17.5352 77.3629 17.5352 75.1763V66.6855C17.5352 65.7643 17.846 64.9929 18.4676 64.3714C19.0891 63.7499 19.8605 63.4391 20.7817 63.4391C21.7029 63.4391 22.4743 63.7499 23.0958 64.3714C23.7173 64.9929 24.0281 65.7643 24.0281 66.6855V75.1763C24.0281 75.5093 24.1668 75.8146 24.4443 76.0922C24.7218 76.3696 25.0271 76.5084 25.3601 76.5084H74.6402C74.9732 76.5084 75.2785 76.3696 75.556 76.0922C75.8335 75.8146 75.9722 75.5093 75.9722 75.1763V66.6855C75.9722 65.7643 76.283 64.9929 76.9045 64.3714C77.5261 63.7499 78.2974 63.4391 79.2186 63.4391C80.1399 63.4391 80.9112 63.7499 81.5327 64.3714C82.1543 64.9929 82.4652 65.7643 82.4652 66.6855V75.1763C82.4652 77.3629 81.7076 79.2137 80.1926 80.7287C78.6776 82.2438 76.8267 83.0013 74.6402 83.0013H25.3601Z"
			fill="#4361ee"
		/>
	</g>
	<defs>
		<clipPath id="clip0_883_100726">
			<rect width="100" height="100" fill="white" transform="translate(0 0.536133)" />
		</clipPath>
	</defs>
</svg>
