<svg width="390" height="60" viewBox="0 0 390 60" fill="none" xmlns="http://www.w3.org/2000/svg">
<g id="partials / mobile / header" filter="url(#filter0_b_145_1101)">
<g id="A_TB_LINKEDIN">
<rect width="20" height="20" transform="translate(350 20)" fill="#FFFEFD" fill-opacity="0.01"/>
<path id="Vector" d="M370 21.4706V38.5294C370 38.9194 369.845 39.2935 369.569 39.5693C369.293 39.8451 368.919 40 368.529 40H351.471C351.081 40 350.707 39.8451 350.431 39.5693C350.155 39.2935 350 38.9194 350 38.5294V21.4706C350 21.0806 350.155 20.7065 350.431 20.4307C350.707 20.1549 351.081 20 351.471 20H368.529C368.919 20 369.293 20.1549 369.569 20.4307C369.845 20.7065 370 21.0806 370 21.4706V21.4706ZM355.882 27.6471H352.941V37.0588H355.882V27.6471ZM356.147 24.4118C356.149 24.1893 356.106 23.9687 356.023 23.7626C355.939 23.5564 355.815 23.3688 355.659 23.2104C355.503 23.052 355.317 22.9259 355.112 22.8393C354.907 22.7528 354.687 22.7074 354.465 22.7059H354.412C353.959 22.7059 353.525 22.8856 353.206 23.2055C352.886 23.5254 352.706 23.9593 352.706 24.4118C352.706 24.8642 352.886 25.2981 353.206 25.618C353.525 25.9379 353.959 26.1176 354.412 26.1176V26.1176C354.634 26.1231 354.856 26.0847 355.063 26.0046C355.271 25.9245 355.461 25.8042 355.622 25.6507C355.783 25.4972 355.912 25.3135 356.002 25.11C356.093 24.9065 356.142 24.6872 356.147 24.4647V24.4118ZM367.059 31.3412C367.059 28.5118 365.259 27.4118 363.471 27.4118C362.885 27.3824 362.302 27.5072 361.78 27.7734C361.258 28.0397 360.814 28.4383 360.494 28.9294H360.412V27.6471H357.647V37.0588H360.588V32.0529C360.546 31.5403 360.707 31.0315 361.038 30.6372C361.368 30.2429 361.841 29.9949 362.353 29.9471H362.465C363.4 29.9471 364.094 30.5353 364.094 32.0176V37.0588H367.035L367.059 31.3412Z" fill="#262143"/>
</g>
<g id="A_TS_INDEX">
<rect width="68.02" height="16" transform="translate(20 22)" fill="#FFFEFD" fill-opacity="0.01"/>
<g id="Vector_2">
<path d="M20 22.9216C20.7296 22.7104 21.6704 22.5184 22.8224 22.3456C23.9744 22.1536 25.184 22.0576 26.4512 22.0576C27.7376 22.0576 28.8032 22.2304 29.648 22.576C30.512 22.9024 31.1936 23.3728 31.6928 23.9872C32.192 24.6016 32.5472 25.3312 32.7584 26.176C32.9696 27.0208 33.0752 27.9616 33.0752 28.9984V37.552H28.784V29.5168C28.784 28.1344 28.6016 27.1552 28.2368 26.5792C27.872 26.0032 27.1904 25.7152 26.192 25.7152C25.8848 25.7152 25.5584 25.7344 25.2128 25.7728C24.8672 25.792 24.56 25.8208 24.2912 25.8592V37.552H20V22.9216Z" fill="#262143"/>
<path d="M49.8906 37.0336C49.161 37.2448 48.2202 37.4368 47.0682 37.6096C45.9162 37.8016 44.7066 37.8976 43.4394 37.8976C42.153 37.8976 41.0778 37.7248 40.2138 37.3792C39.369 37.0336 38.697 36.5536 38.1978 35.9392C37.6986 35.3056 37.3434 34.5568 37.1322 33.6928C36.921 32.8288 36.8154 31.8784 36.8154 30.8416V22.4032H41.1066V30.3232C41.1066 31.7056 41.289 32.704 41.6538 33.3184C42.0186 33.9328 42.7002 34.24 43.6986 34.24C44.0058 34.24 44.3322 34.2304 44.6778 34.2112C45.0234 34.1728 45.3306 34.1344 45.5994 34.096V22.4032H49.8906V37.0336Z" fill="#262143"/>
<path d="M58.2675 34.4704C59.0547 34.4704 59.6115 34.3936 59.9379 34.24C60.2643 34.0864 60.4275 33.7888 60.4275 33.3472C60.4275 33.0016 60.2163 32.704 59.7939 32.4544C59.3715 32.1856 58.7283 31.888 57.8643 31.5616C57.1923 31.312 56.5779 31.0528 56.0211 30.784C55.4835 30.5152 55.0227 30.1984 54.6387 29.8336C54.2547 29.4496 53.9571 28.9984 53.7459 28.48C53.5347 27.9616 53.4291 27.3376 53.4291 26.608C53.4291 25.1872 53.9571 24.064 55.0131 23.2384C56.0691 22.4128 57.5187 22 59.3619 22C60.2835 22 61.1667 22.0864 62.0115 22.2592C62.8563 22.4128 63.5283 22.5856 64.0275 22.7776L63.2787 26.1184C62.7795 25.9456 62.2323 25.792 61.6371 25.6576C61.0611 25.5232 60.4083 25.456 59.6787 25.456C58.3347 25.456 57.6627 25.8304 57.6627 26.5792C57.6627 26.752 57.6915 26.9056 57.7491 27.04C57.8067 27.1744 57.9219 27.3088 58.0947 27.4432C58.2675 27.5584 58.4979 27.6928 58.7859 27.8464C59.0931 27.9808 59.4771 28.1344 59.9379 28.3072C60.8787 28.6528 61.6563 28.9984 62.2707 29.344C62.8851 29.6704 63.3651 30.0352 63.7107 30.4384C64.0755 30.8224 64.3251 31.2544 64.4595 31.7344C64.6131 32.2144 64.6899 32.7712 64.6899 33.4048C64.6899 34.9024 64.1235 36.0352 62.9907 36.8032C61.8771 37.5712 60.2931 37.9552 58.2387 37.9552C56.8947 37.9552 55.7715 37.84 54.8691 37.6096C53.9859 37.3792 53.3715 37.1872 53.0259 37.0336L53.7459 33.5488C54.4755 33.8368 55.2243 34.0672 55.9923 34.24C56.7603 34.3936 57.5187 34.4704 58.2675 34.4704Z" fill="#262143"/>
<path d="M73.6857 34.5568C74.1081 34.5568 74.5113 34.5472 74.8953 34.528C75.2793 34.5088 75.5865 34.48 75.8169 34.4416V31.1872C75.6441 31.1488 75.3849 31.1104 75.0393 31.072C74.6937 31.0336 74.3769 31.0144 74.0889 31.0144C73.6857 31.0144 73.3017 31.0432 72.9369 31.1008C72.5913 31.1392 72.2841 31.2256 72.0153 31.36C71.7465 31.4944 71.5353 31.6768 71.3817 31.9072C71.2281 32.1376 71.1513 32.4256 71.1513 32.7712C71.1513 33.4432 71.3721 33.9136 71.8137 34.1824C72.2745 34.432 72.8985 34.5568 73.6857 34.5568ZM73.3401 22C74.6073 22 75.6633 22.144 76.5081 22.432C77.3529 22.72 78.0249 23.1328 78.5241 23.6704C79.0425 24.208 79.4073 24.8608 79.6185 25.6288C79.8297 26.3968 79.9353 27.2512 79.9353 28.192V37.12C79.3209 37.2544 78.4665 37.408 77.3721 37.5808C76.2777 37.7728 74.9529 37.8688 73.3977 37.8688C72.4185 37.8688 71.5257 37.7824 70.7193 37.6096C69.9321 37.4368 69.2505 37.1584 68.6745 36.7744C68.0985 36.3712 67.6569 35.8528 67.3497 35.2192C67.0425 34.5856 66.8889 33.808 66.8889 32.8864C66.8889 32.0032 67.0617 31.2544 67.4073 30.64C67.7721 30.0256 68.2521 29.536 68.8473 29.1712C69.4425 28.8064 70.1241 28.5472 70.8921 28.3936C71.6601 28.2208 72.4569 28.1344 73.2825 28.1344C73.8393 28.1344 74.3289 28.1632 74.7513 28.2208C75.1929 28.2592 75.5481 28.3168 75.8169 28.3936V27.9904C75.8169 27.2608 75.5961 26.6752 75.1545 26.2336C74.7129 25.792 73.9449 25.5712 72.8505 25.5712C72.1209 25.5712 71.4009 25.6288 70.6905 25.744C69.9801 25.84 69.3657 25.984 68.8473 26.176L68.3001 22.72C68.5497 22.6432 68.8569 22.5664 69.2217 22.4896C69.6057 22.3936 70.0185 22.3168 70.4601 22.2592C70.9017 22.1824 71.3625 22.1248 71.8425 22.0864C72.3417 22.0288 72.8409 22 73.3401 22Z" fill="#262143"/>
<path d="M88.0205 35.3504C88.0205 36.2144 87.7421 36.8768 87.1853 37.3376C86.6477 37.7792 86.0333 38 85.3421 38C84.6509 38 84.0269 37.7792 83.4701 37.3376C82.9325 36.8768 82.6637 36.2144 82.6637 35.3504C82.6637 34.4864 82.9325 33.8336 83.4701 33.392C84.0269 32.9312 84.6509 32.7008 85.3421 32.7008C86.0333 32.7008 86.6477 32.9312 87.1853 33.392C87.7421 33.8336 88.0205 34.4864 88.0205 35.3504Z" fill="#9381FF"/>
</g>
</g>
</g>
<defs>
<filter id="filter0_b_145_1101" x="-10" y="-10" width="410" height="80" filterUnits="userSpaceOnUse" color-interpolation-filters="sRGB">
<feFlood flood-opacity="0" result="BackgroundImageFix"/>
<feGaussianBlur in="BackgroundImage" stdDeviation="5"/>
<feComposite in2="SourceAlpha" operator="in" result="effect1_backgroundBlur_145_1101"/>
<feBlend mode="normal" in="SourceGraphic" in2="effect1_backgroundBlur_145_1101" result="shape"/>
</filter>
</defs>
</svg>
