<svg width="1068" height="100" viewBox="0 0 1068 100" fill="none" xmlns="http://www.w3.org/2000/svg">
<g id="partials / desktop / header" filter="url(#filter0_b_354_2690)">
<g id="A_TB_LINKEDIN">
<rect width="24" height="24" transform="translate(1024 38)" fill="#FFFEFD" fill-opacity="0.01"/>
<path id="Vector" d="M1048 39.7647V60.2353C1048 60.7033 1047.81 61.1522 1047.48 61.4831C1047.15 61.8141 1046.7 62 1046.24 62H1025.76C1025.3 62 1024.85 61.8141 1024.52 61.4831C1024.19 61.1522 1024 60.7033 1024 60.2353V39.7647C1024 39.2967 1024.19 38.8478 1024.52 38.5169C1024.85 38.1859 1025.3 38 1025.76 38H1046.24C1046.7 38 1047.15 38.1859 1047.48 38.5169C1047.81 38.8478 1048 39.2967 1048 39.7647V39.7647ZM1031.06 47.1765H1027.53V58.4706H1031.06V47.1765ZM1031.38 43.2941C1031.38 43.0271 1031.33 42.7624 1031.23 42.5151C1031.13 42.2677 1030.98 42.0426 1030.79 41.8525C1030.6 41.6624 1030.38 41.5111 1030.13 41.4072C1029.89 41.3033 1029.62 41.2489 1029.36 41.2471H1029.29C1028.75 41.2471 1028.23 41.4627 1027.85 41.8466C1027.46 42.2305 1027.25 42.7512 1027.25 43.2941C1027.25 43.837 1027.46 44.3577 1027.85 44.7416C1028.23 45.1255 1028.75 45.3412 1029.29 45.3412V45.3412C1029.56 45.3477 1029.83 45.3016 1030.08 45.2055C1030.33 45.1094 1030.55 44.9651 1030.75 44.7809C1030.94 44.5967 1031.09 44.3762 1031.2 44.132C1031.31 43.8878 1031.37 43.6246 1031.38 43.3576V43.2941ZM1044.47 51.6094C1044.47 48.2141 1042.31 46.8941 1040.16 46.8941C1039.46 46.8589 1038.76 47.0086 1038.14 47.3281C1037.51 47.6477 1036.98 48.126 1036.59 48.7153H1036.49V47.1765H1033.18V58.4706H1036.71V52.4635C1036.65 51.8483 1036.85 51.2378 1037.25 50.7646C1037.64 50.2915 1038.21 49.9939 1038.82 49.9365H1038.96C1040.08 49.9365 1040.91 50.6424 1040.91 52.4212V58.4706H1044.44L1044.47 51.6094Z" fill="#262143"/>
</g>
<g id="A_TS_INDEX">
<rect width="86" height="20" transform="translate(20 40)" fill="#FFFEFD" fill-opacity="0.01"/>
<g id="Vector_2">
<path d="M20 41.152C20.912 40.888 22.088 40.648 23.528 40.432C24.968 40.192 26.48 40.072 28.064 40.072C29.672 40.072 31.004 40.288 32.06 40.72C33.14 41.128 33.992 41.716 34.616 42.484C35.24 43.252 35.684 44.164 35.948 45.22C36.212 46.276 36.344 47.452 36.344 48.748V59.44H30.98V49.396C30.98 47.668 30.752 46.444 30.296 45.724C29.84 45.004 28.988 44.644 27.74 44.644C27.356 44.644 26.948 44.668 26.516 44.716C26.084 44.74 25.7 44.776 25.364 44.824V59.44H20V41.152Z" fill="#262143"/>
<path d="M57.3632 58.792C56.4512 59.056 55.2752 59.296 53.8352 59.512C52.3952 59.752 50.8832 59.872 49.2992 59.872C47.6912 59.872 46.3472 59.656 45.2672 59.224C44.2112 58.792 43.3712 58.192 42.7472 57.424C42.1232 56.632 41.6792 55.696 41.4152 54.616C41.1512 53.536 41.0192 52.348 41.0192 51.052V40.504H46.3832V50.404C46.3832 52.132 46.6112 53.38 47.0672 54.148C47.5232 54.916 48.3752 55.3 49.6232 55.3C50.0072 55.3 50.4152 55.288 50.8472 55.264C51.2792 55.216 51.6632 55.168 51.9992 55.12V40.504H57.3632V58.792Z" fill="#262143"/>
<path d="M67.8344 55.588C68.8184 55.588 69.5144 55.492 69.9224 55.3C70.3304 55.108 70.5344 54.736 70.5344 54.184C70.5344 53.752 70.2704 53.38 69.7424 53.068C69.2144 52.732 68.4104 52.36 67.3304 51.952C66.4904 51.64 65.7224 51.316 65.0264 50.98C64.3544 50.644 63.7784 50.248 63.2984 49.792C62.8184 49.312 62.4464 48.748 62.1824 48.1C61.9184 47.452 61.7864 46.672 61.7864 45.76C61.7864 43.984 62.4464 42.58 63.7664 41.548C65.0864 40.516 66.8984 40 69.2024 40C70.3544 40 71.4584 40.108 72.5144 40.324C73.5704 40.516 74.4104 40.732 75.0344 40.972L74.0984 45.148C73.4744 44.932 72.7904 44.74 72.0464 44.572C71.3264 44.404 70.5104 44.32 69.5984 44.32C67.9184 44.32 67.0784 44.788 67.0784 45.724C67.0784 45.94 67.1144 46.132 67.1864 46.3C67.2584 46.468 67.4024 46.636 67.6184 46.804C67.8344 46.948 68.1224 47.116 68.4824 47.308C68.8664 47.476 69.3464 47.668 69.9224 47.884C71.0984 48.316 72.0704 48.748 72.8384 49.18C73.6064 49.588 74.2064 50.044 74.6384 50.548C75.0944 51.028 75.4064 51.568 75.5744 52.168C75.7664 52.768 75.8624 53.464 75.8624 54.256C75.8624 56.128 75.1544 57.544 73.7384 58.504C72.3464 59.464 70.3664 59.944 67.7984 59.944C66.1184 59.944 64.7144 59.8 63.5864 59.512C62.4824 59.224 61.7144 58.984 61.2824 58.792L62.1824 54.436C63.0944 54.796 64.0304 55.084 64.9904 55.3C65.9504 55.492 66.8984 55.588 67.8344 55.588Z" fill="#262143"/>
<path d="M87.1071 55.696C87.6351 55.696 88.1391 55.684 88.6191 55.66C89.0991 55.636 89.4831 55.6 89.7711 55.552V51.484C89.5551 51.436 89.2311 51.388 88.7991 51.34C88.3671 51.292 87.9711 51.268 87.6111 51.268C87.1071 51.268 86.6271 51.304 86.1711 51.376C85.7391 51.424 85.3551 51.532 85.0191 51.7C84.6831 51.868 84.4191 52.096 84.2271 52.384C84.0351 52.672 83.9391 53.032 83.9391 53.464C83.9391 54.304 84.2151 54.892 84.7671 55.228C85.3431 55.54 86.1231 55.696 87.1071 55.696ZM86.6751 40C88.2591 40 89.5791 40.18 90.6351 40.54C91.6911 40.9 92.5311 41.416 93.1551 42.088C93.8031 42.76 94.2591 43.576 94.5231 44.536C94.7871 45.496 94.9191 46.564 94.9191 47.74V58.9C94.1511 59.068 93.0831 59.26 91.7151 59.476C90.3471 59.716 88.6911 59.836 86.7471 59.836C85.5231 59.836 84.4071 59.728 83.3991 59.512C82.4151 59.296 81.5631 58.948 80.8431 58.468C80.1231 57.964 79.5711 57.316 79.1871 56.524C78.8031 55.732 78.6111 54.76 78.6111 53.608C78.6111 52.504 78.8271 51.568 79.2591 50.8C79.7151 50.032 80.3151 49.42 81.0591 48.964C81.8031 48.508 82.6551 48.184 83.6151 47.992C84.5751 47.776 85.5711 47.668 86.6031 47.668C87.2991 47.668 87.9111 47.704 88.4391 47.776C88.9911 47.824 89.4351 47.896 89.7711 47.992V47.488C89.7711 46.576 89.4951 45.844 88.9431 45.292C88.3911 44.74 87.4311 44.464 86.0631 44.464C85.1511 44.464 84.2511 44.536 83.3631 44.68C82.4751 44.8 81.7071 44.98 81.0591 45.22L80.3751 40.9C80.6871 40.804 81.0711 40.708 81.5271 40.612C82.0071 40.492 82.5231 40.396 83.0751 40.324C83.6271 40.228 84.2031 40.156 84.8031 40.108C85.4271 40.036 86.0511 40 86.6751 40Z" fill="#262143"/>
<path d="M105.026 56.688C105.026 57.768 104.678 58.596 103.982 59.172C103.31 59.724 102.542 60 101.678 60C100.814 60 100.034 59.724 99.3376 59.172C98.6656 58.596 98.3296 57.768 98.3296 56.688C98.3296 55.608 98.6656 54.792 99.3376 54.24C100.034 53.664 100.814 53.376 101.678 53.376C102.542 53.376 103.31 53.664 103.982 54.24C104.678 54.792 105.026 55.608 105.026 56.688Z" fill="#9381FF"/>
</g>
</g>
</g>
<defs>
<filter id="filter0_b_354_2690" x="-10" y="-10" width="1088" height="120" filterUnits="userSpaceOnUse" color-interpolation-filters="sRGB">
<feFlood flood-opacity="0" result="BackgroundImageFix"/>
<feGaussianBlur in="BackgroundImage" stdDeviation="5"/>
<feComposite in2="SourceAlpha" operator="in" result="effect1_backgroundBlur_354_2690"/>
<feBlend mode="normal" in="SourceGraphic" in2="effect1_backgroundBlur_354_2690" result="shape"/>
</filter>
</defs>
</svg>
